<svg width="33" height="35" viewBox="0 0 33 35" fill="none" xmlns="http://www.w3.org/2000/svg">
<path id="Vector" d="M22.129 10.2305C23.0964 10.2057 23.928 10.3379 24.6679 10.756C25.9087 11.4568 26.6199 12.4418 26.6715 13.731C26.7136 14.8003 26.6715 15.8795 26.6715 16.9885C26.8837 16.9885 27.0539 17.0084 27.2183 17.0084C28.6025 17.0084 29.9848 17.0084 31.3689 17.0084C32.2426 17.0084 32.6498 17.4232 32.4969 18.1652C31.9482 20.8559 31.3938 23.1235 30.8317 25.8125C30.696 26.457 30.3059 26.7264 29.5373 26.7297C28.3788 26.7297 27.2221 26.7297 25.9909 26.7297V34.9934H24.0198V22.7813H8.54531V35H6.49967V26.7628C6.27407 26.7545 6.10392 26.7413 5.92612 26.7413C4.94152 26.7413 3.95501 26.7413 2.9685 26.7413C2.19038 26.7314 1.8214 26.4703 1.68566 25.8158C1.16181 23.3036 0.647526 21.2311 0.129417 18.7305C0.0892689 18.5421 0.0491199 18.352 0.0204424 18.162C-0.0961798 17.3967 0.286188 17.005 1.16755 17.005C2.32804 17.005 3.48852 17.005 4.64901 17.005H5.1805V16.5274C5.1805 14.8912 5.1805 14.0615 5.19006 12.4253C5.19006 11.7262 5.23212 11.2105 5.73303 10.6073C6.23392 10.004 6.43467 9.73297 6.9566 9.0917C7.40588 8.54136 8.08073 8.3959 8.639 8.72812C9.19726 9.06034 9.247 9.57925 8.77671 10.1561C7.70413 11.4783 7.40398 11.394 7.40398 12.4369C7.40398 13.3029 7.44985 16.9852 7.44985 16.9852H9.86644V15.9506C9.86644 15.3043 9.86644 14.6581 9.86644 14.0119C9.90467 11.9261 11.4494 10.4552 13.9214 10.2107C11.9178 8.59421 11.1455 6.64071 11.7534 4.34671C12.022 3.33453 12.6125 2.4074 13.4584 1.67002C14.3042 0.932629 15.3716 0.414352 16.5402 0.173705C17.7088 -0.066941 18.9319 -0.0203735 20.0715 0.30815C21.2111 0.636674 22.2217 1.23407 22.9893 2.03288C25.1153 4.24259 25.1917 7.81749 22.129 10.2305ZM30.1587 18.7288H2.37392C2.80217 20.7898 3.22278 22.8111 3.64338 24.8439H6.47864V22.1797C6.47864 21.4625 6.91645 21.1319 7.71178 21.1319H24.7922C25.4824 21.1319 26.054 21.7236 26.054 22.2888C26.054 23.1383 26.054 23.9846 26.054 24.8704C26.9449 24.8704 27.8014 24.8803 28.656 24.8572C28.7573 24.8572 28.9102 24.6919 28.939 24.5712C29.0747 24.0358 29.178 23.492 29.2907 22.9516L30.1587 18.7288ZM12.0096 16.81H24.5723C24.5723 15.8448 24.5819 14.911 24.5723 13.9772C24.5589 12.8467 23.6833 12.0914 22.3794 12.0898C19.6455 12.0898 16.9109 12.0898 14.1758 12.0898C13.042 12.0898 12.1224 12.7079 12.0325 13.6698C11.937 14.7093 12.0096 15.7506 12.0096 16.81ZM13.671 5.71683C13.6576 6.21906 13.7594 6.71862 13.9707 7.18658C14.1819 7.6546 14.4983 8.08174 14.9018 8.44336C15.3052 8.80498 15.7874 9.09394 16.3208 9.29344C16.8541 9.49294 17.4279 9.59906 18.009 9.60571C20.4274 9.62062 22.3928 7.90667 22.4062 5.76476C22.4196 3.62281 20.4561 1.87422 18.0663 1.86595C15.6765 1.85769 13.6901 3.57323 13.671 5.71683Z" fill="white"/>
</svg>
